<svg xmlns="http://www.w3.org/2000/svg" viewBox="0 0 100 100">
  <defs>
    <linearGradient id="starGradient" x1="0%" y1="0%" x2="100%" y2="100%">
      <stop offset="0%" style="stop-color:#FFD700;stop-opacity:1" /> <!-- Bright gold -->
      <stop offset="100%" style="stop-color:#FFA500;stop-opacity:1" /> <!-- Darker orange -->
    </linearGradient>
    <filter id="shadow" x="-20%" y="-20%" width="140%" height="140%">
      <feGaussianBlur in="SourceAlpha" stdDeviation="2"/>
      <feOffset dx="2" dy="2" result="offsetblur"/>
      <feFlood flood-color="#000000" flood-opacity="0.3"/>
      <feComposite in2="offsetblur" operator="in"/>
      <feMerge>
        <feMergeNode/>
        <feMergeNode in="SourceGraphic"/>
      </feMerge>
    </filter>
  </defs>
  <path class="star" d="M50 0 L61 35 L97 35 L68 57 L79 91 L50 70 L21 91 L32 57 L3 35 L39 35 Z"
        style="fill:url(#starGradient); filter:url(#shadow);" />
  <path class="highlight" d="M50 0 L61 35 L97 35 L68 57 L79 91 L50 70"
        style="fill:none; stroke:#FFE45C; stroke-width:2; opacity:0.6;" />
</svg>
  <style>
    .star { fill: #4CAF50; opacity: 0.3; }
  </style>
  <path class="star" d="M50 0 L61 35 L97 35 L68 57 L79 91 L50 70 L21 91 L32 57 L3 35 L39 35 Z"/>
</svg>